<?xml version="1.0" standalone="no"?>
<!DOCTYPE svg PUBLIC "-//W3C//DTD SVG 20010904//EN"
 "http://www.w3.org/TR/2001/REC-SVG-20010904/DTD/svg10.dtd">
<svg version="1.0" xmlns="http://www.w3.org/2000/svg"
 width="512.000000pt" height="512.000000pt" viewBox="0 0 512.000000 512.000000"
 preserveAspectRatio="xMidYMid meet">

<g transform="translate(0.000000,512.000000) scale(0.100000,-0.100000)"
fill="#000000" stroke="none">
<path d="M1370 2915 l0 -1185 1190 0 1190 0 0 1185 0 1185 -1190 0 -1190 0 0
-1185z m1319 351 c320 -192 580 -350 579 -352 -4 -3 -1138 -683 -1160 -695
-17 -9 -18 13 -18 696 0 396 4 705 9 703 4 -1 270 -160 590 -352z"/>
<path d="M900 2915 l0 -945 120 0 120 0 0 945 0 945 -120 0 -120 0 0 -945z"/>
<path d="M3980 2915 l0 -945 120 0 120 0 0 945 0 945 -120 0 -120 0 0 -945z"/>
<path d="M425 3618 c-3 -7 -4 -328 -3 -713 l3 -700 118 -3 117 -3 0 716 0 715
-115 0 c-83 0 -117 -3 -120 -12z"/>
<path d="M4460 2915 l0 -716 118 3 117 3 0 710 0 710 -117 3 -118 3 0 -716z"/>
<path d="M1782 1234 c-70 -49 -66 -161 8 -199 68 -35 146 -3 170 69 14 44 5
80 -32 116 -24 25 -38 30 -77 30 -26 0 -56 -7 -69 -16z"/>
<path d="M2480 1222 c-55 -56 -46 -147 19 -185 120 -70 239 86 141 185 -24 23
-37 28 -80 28 -43 0 -56 -5 -80 -28z"/>
<path d="M3198 1229 c-59 -44 -57 -133 3 -184 72 -60 189 -4 189 90 0 34 -24
80 -52 99 -32 23 -107 20 -140 -5z"/>
</g>
</svg>
